<?xml version="1.0" encoding="UTF-8"?><svg id="Layer_1" xmlns="http://www.w3.org/2000/svg" viewBox="0 0 60 60"><defs><style>.cls-1{fill:#fff;}.cls-2{fill:#664a9e;}</style></defs><path class="cls-2" d="M60,51.67c0,4.6-3.73,8.33-8.33,8.33H8.33c-4.6,0-8.33-3.73-8.33-8.33V8.33C0,3.73,3.73,0,8.33,0H51.67c4.6,0,8.33,3.73,8.33,8.33V51.67Z"/><path class="cls-1" d="M45.05,32.67c-1.08-1.5-2.65-2.53-4.67-3.08,0,0,1.7-.62,3.23-2.92,.92-1.47,1.38-3.23,1.38-5.3,0-3.58-1.3-6.33-3.9-8.22-2.6-1.88-5.53-3.15-10.52-3.15H15V50h17.38c4.72-.03,8.27-1.05,10.68-3,2.4-1.98,3.6-4.92,3.6-8.83,0-2.17-.53-4-1.62-5.5ZM25,16.67h7.08c2.53,0,4.58,2.05,4.58,4.58s-2.05,4.58-4.58,4.58h-7.08v-9.17Zm8.33,26.67h-8.33v-10h8.33c2.77,0,5,2.23,5,5s-2.23,5-5,5Z"/></svg>