<?xml version="1.0" encoding="UTF-8"?><svg id="Layer_1" xmlns="http://www.w3.org/2000/svg" viewBox="0 0 34.73 47.75"><defs><style>.cls-1{fill:#ffa000;}.cls-2{fill:#ffc400;}.cls-3{fill:#ff6f00;}.cls-4{fill:#ff8f00;}</style></defs><path class="cls-4" d="M0,37.98L16.53,6.98c.35-.65,1.29-.64,1.62,.02l5.72,11.44L0,37.98Z"/><path class="cls-1" d="M0,37.98L6.02,.86c.16-.97,1.46-1.18,1.92-.31l11.6,22.23L0,37.98Z"/><path class="cls-3" d="M0,37.97l.22-.17,19.02-15.56-5.37-10.28L0,37.97Z"/><path class="cls-2" d="M0,37.98L28.94,10.08c.61-.58,1.62-.24,1.74,.59l4.05,27.31-16.28,9.49c-.66,.37-1.47,.37-2.13,0L0,37.98Z"/></svg>