<svg xmlns="http://www.w3.org/2000/svg" xmlns:xlink="http://www.w3.org/1999/xlink" width="578" zoomAndPan="magnify" viewBox="0 0 433.5 289.499996" height="386" preserveAspectRatio="xMidYMid meet" version="1.0"><defs><clipPath id="cc2ad626ca"><path d="M 0.125 0 L 432.875 0 L 432.875 289 L 0.125 289 Z M 0.125 0 " clip-rule="nonzero"/></clipPath><clipPath id="7f274db078"><path d="M 11.238281 38 L 421.53125 38 L 421.53125 251 L 11.238281 251 Z M 11.238281 38 " clip-rule="nonzero"/></clipPath><clipPath id="2b2208d271"><path d="M 11.238281 144.488281 C 11.238281 203.28125 103.085938 250.945312 216.378906 250.945312 C 329.671875 250.945312 421.519531 203.28125 421.519531 144.488281 C 421.519531 85.695312 329.671875 38.035156 216.378906 38.035156 C 103.085938 38.035156 11.238281 85.699219 11.238281 144.488281 " clip-rule="nonzero"/></clipPath><clipPath id="a7b24adb84"><path d="M 11.238281 144.488281 C 11.238281 203.28125 103.085938 250.945312 216.378906 250.945312 C 329.671875 250.945312 421.519531 203.28125 421.519531 144.488281 C 421.519531 85.695312 329.671875 38.035156 216.378906 38.035156 C 103.085938 38.035156 11.238281 85.699219 11.238281 144.488281 " clip-rule="nonzero"/></clipPath><radialGradient gradientTransform="matrix(1.006797, 0, 0, 0.993203, 134.406439, 75.458044)" gradientUnits="userSpaceOnUse" r="267.561312" cx="0" id="d53c35986b" cy="0" fx="0" fy="0"><stop stop-opacity="1" stop-color="rgb(68.199158%, 69.799805%, 83.499146%)" offset="0"/><stop stop-opacity="1" stop-color="rgb(68.199158%, 69.799805%, 83.499146%)" offset="0.25"/><stop stop-opacity="1" stop-color="rgb(68.164062%, 69.764709%, 83.473206%)" offset="0.296875"/><stop stop-opacity="1" stop-color="rgb(67.956543%, 69.555664%, 83.317566%)" offset="0.300781"/><stop stop-opacity="1" stop-color="rgb(67.608643%, 69.20929%, 83.059692%)" offset="0.304688"/><stop stop-opacity="1" stop-color="rgb(67.260742%, 68.861389%, 82.800293%)" offset="0.308594"/><stop stop-opacity="1" stop-color="rgb(66.914368%, 68.513489%, 82.542419%)" offset="0.3125"/><stop stop-opacity="1" stop-color="rgb(66.566467%, 68.167114%, 82.28302%)" offset="0.316406"/><stop stop-opacity="1" stop-color="rgb(66.220093%, 67.819214%, 82.025146%)" offset="0.320312"/><stop stop-opacity="1" stop-color="rgb(65.872192%, 67.472839%, 81.765747%)" offset="0.324219"/><stop stop-opacity="1" stop-color="rgb(65.525818%, 67.124939%, 81.506348%)" offset="0.328125"/><stop stop-opacity="1" stop-color="rgb(65.177917%, 66.778564%, 81.248474%)" offset="0.332031"/><stop stop-opacity="1" stop-color="rgb(64.831543%, 66.430664%, 80.989075%)" offset="0.335938"/><stop stop-opacity="1" stop-color="rgb(64.483643%, 66.08429%, 80.731201%)" offset="0.339844"/><stop stop-opacity="1" stop-color="rgb(64.135742%, 65.736389%, 80.471802%)" offset="0.34375"/><stop stop-opacity="1" stop-color="rgb(63.789368%, 65.388489%, 80.213928%)" offset="0.347656"/><stop stop-opacity="1" stop-color="rgb(63.441467%, 65.042114%, 79.954529%)" offset="0.351562"/><stop stop-opacity="1" stop-color="rgb(63.095093%, 64.694214%, 79.696655%)" offset="0.355469"/><stop stop-opacity="1" stop-color="rgb(62.747192%, 64.347839%, 79.437256%)" offset="0.359375"/><stop stop-opacity="1" stop-color="rgb(62.400818%, 63.999939%, 79.179382%)" offset="0.363281"/><stop stop-opacity="1" stop-color="rgb(62.052917%, 63.653564%, 78.919983%)" offset="0.367188"/><stop stop-opacity="1" stop-color="rgb(61.706543%, 63.305664%, 78.662109%)" offset="0.371094"/><stop stop-opacity="1" stop-color="rgb(61.358643%, 62.95929%, 78.40271%)" offset="0.375"/><stop stop-opacity="1" stop-color="rgb(61.010742%, 62.611389%, 78.144836%)" offset="0.378906"/><stop stop-opacity="1" stop-color="rgb(60.664368%, 62.263489%, 77.885437%)" offset="0.382812"/><stop stop-opacity="1" stop-color="rgb(60.316467%, 61.917114%, 77.627563%)" offset="0.386719"/><stop stop-opacity="1" stop-color="rgb(59.970093%, 61.569214%, 77.368164%)" offset="0.390625"/><stop stop-opacity="1" stop-color="rgb(59.622192%, 61.222839%, 77.108765%)" offset="0.394531"/><stop stop-opacity="1" stop-color="rgb(59.275818%, 60.874939%, 76.850891%)" offset="0.398438"/><stop stop-opacity="1" stop-color="rgb(58.927917%, 60.528564%, 76.591492%)" offset="0.402344"/><stop stop-opacity="1" stop-color="rgb(58.581543%, 60.180664%, 76.333618%)" offset="0.40625"/><stop stop-opacity="1" stop-color="rgb(58.233643%, 59.83429%, 76.074219%)" offset="0.410156"/><stop stop-opacity="1" stop-color="rgb(57.885742%, 59.486389%, 75.816345%)" offset="0.414062"/><stop stop-opacity="1" stop-color="rgb(57.539368%, 59.138489%, 75.556946%)" offset="0.417969"/><stop stop-opacity="1" stop-color="rgb(57.191467%, 58.792114%, 75.299072%)" offset="0.421875"/><stop stop-opacity="1" stop-color="rgb(56.845093%, 58.444214%, 75.039673%)" offset="0.425781"/><stop stop-opacity="1" stop-color="rgb(56.497192%, 58.097839%, 74.781799%)" offset="0.429688"/><stop stop-opacity="1" stop-color="rgb(56.150818%, 57.749939%, 74.5224%)" offset="0.433594"/><stop stop-opacity="1" stop-color="rgb(55.802917%, 57.403564%, 74.264526%)" offset="0.4375"/><stop stop-opacity="1" stop-color="rgb(55.456543%, 57.055664%, 74.005127%)" offset="0.441406"/><stop stop-opacity="1" stop-color="rgb(55.108643%, 56.70929%, 73.747253%)" offset="0.445312"/><stop stop-opacity="1" stop-color="rgb(54.760742%, 56.361389%, 73.487854%)" offset="0.449219"/><stop stop-opacity="1" stop-color="rgb(54.414368%, 56.013489%, 73.22998%)" offset="0.453125"/><stop stop-opacity="1" stop-color="rgb(54.066467%, 55.667114%, 72.970581%)" offset="0.457031"/><stop stop-opacity="1" stop-color="rgb(53.720093%, 55.319214%, 72.711182%)" offset="0.460938"/><stop stop-opacity="1" stop-color="rgb(53.372192%, 54.972839%, 72.453308%)" offset="0.464844"/><stop stop-opacity="1" stop-color="rgb(53.025818%, 54.624939%, 72.193909%)" offset="0.46875"/><stop stop-opacity="1" stop-color="rgb(52.677917%, 54.278564%, 71.936035%)" offset="0.472656"/><stop stop-opacity="1" stop-color="rgb(52.331543%, 53.930664%, 71.676636%)" offset="0.476562"/><stop stop-opacity="1" stop-color="rgb(51.983643%, 53.58429%, 71.418762%)" offset="0.480469"/><stop stop-opacity="1" stop-color="rgb(51.635742%, 53.236389%, 71.159363%)" offset="0.484375"/><stop stop-opacity="1" stop-color="rgb(51.289368%, 52.888489%, 70.901489%)" offset="0.488281"/><stop stop-opacity="1" stop-color="rgb(50.941467%, 52.542114%, 70.64209%)" offset="0.492188"/><stop stop-opacity="1" stop-color="rgb(50.595093%, 52.194214%, 70.384216%)" offset="0.496094"/><stop stop-opacity="1" stop-color="rgb(50.247192%, 51.847839%, 70.124817%)" offset="0.5"/><stop stop-opacity="1" stop-color="rgb(49.900818%, 51.499939%, 69.866943%)" offset="0.503906"/><stop stop-opacity="1" stop-color="rgb(49.552917%, 51.153564%, 69.607544%)" offset="0.507812"/><stop stop-opacity="1" stop-color="rgb(49.206543%, 50.805664%, 69.34967%)" offset="0.511719"/><stop stop-opacity="1" stop-color="rgb(48.858643%, 50.45929%, 69.090271%)" offset="0.515625"/><stop stop-opacity="1" stop-color="rgb(48.510742%, 50.111389%, 68.832397%)" offset="0.519531"/><stop stop-opacity="1" stop-color="rgb(48.164368%, 49.763489%, 68.572998%)" offset="0.523438"/><stop stop-opacity="1" stop-color="rgb(47.816467%, 49.417114%, 68.313599%)" offset="0.527344"/><stop stop-opacity="1" stop-color="rgb(47.470093%, 49.069214%, 68.055725%)" offset="0.53125"/><stop stop-opacity="1" stop-color="rgb(47.122192%, 48.722839%, 67.796326%)" offset="0.535156"/><stop stop-opacity="1" stop-color="rgb(46.775818%, 48.374939%, 67.538452%)" offset="0.539062"/><stop stop-opacity="1" stop-color="rgb(46.427917%, 48.028564%, 67.279053%)" offset="0.542969"/><stop stop-opacity="1" stop-color="rgb(46.081543%, 47.680664%, 67.021179%)" offset="0.546875"/><stop stop-opacity="1" stop-color="rgb(45.733643%, 47.33429%, 66.76178%)" offset="0.550781"/><stop stop-opacity="1" stop-color="rgb(45.385742%, 46.986389%, 66.503906%)" offset="0.554688"/><stop stop-opacity="1" stop-color="rgb(45.039368%, 46.638489%, 66.244507%)" offset="0.558594"/><stop stop-opacity="1" stop-color="rgb(44.691467%, 46.292114%, 65.986633%)" offset="0.5625"/><stop stop-opacity="1" stop-color="rgb(44.345093%, 45.944214%, 65.727234%)" offset="0.566406"/><stop stop-opacity="1" stop-color="rgb(43.997192%, 45.597839%, 65.46936%)" offset="0.570312"/><stop stop-opacity="1" stop-color="rgb(43.650818%, 45.249939%, 65.209961%)" offset="0.574219"/><stop stop-opacity="1" stop-color="rgb(43.302917%, 44.903564%, 64.952087%)" offset="0.578125"/><stop stop-opacity="1" stop-color="rgb(42.956543%, 44.555664%, 64.692688%)" offset="0.582031"/><stop stop-opacity="1" stop-color="rgb(42.608643%, 44.20929%, 64.434814%)" offset="0.585938"/><stop stop-opacity="1" stop-color="rgb(42.260742%, 43.861389%, 64.175415%)" offset="0.589844"/><stop stop-opacity="1" stop-color="rgb(41.914368%, 43.513489%, 63.916016%)" offset="0.59375"/><stop stop-opacity="1" stop-color="rgb(41.566467%, 43.167114%, 63.658142%)" offset="0.597656"/><stop stop-opacity="1" stop-color="rgb(41.220093%, 42.819214%, 63.398743%)" offset="0.601562"/><stop stop-opacity="1" stop-color="rgb(40.872192%, 42.472839%, 63.140869%)" offset="0.605469"/><stop stop-opacity="1" stop-color="rgb(40.525818%, 42.124939%, 62.88147%)" offset="0.609375"/><stop stop-opacity="1" stop-color="rgb(40.177917%, 41.778564%, 62.623596%)" offset="0.613281"/><stop stop-opacity="1" stop-color="rgb(39.831543%, 41.430664%, 62.364197%)" offset="0.617188"/><stop stop-opacity="1" stop-color="rgb(39.483643%, 41.08429%, 62.106323%)" offset="0.621094"/><stop stop-opacity="1" stop-color="rgb(39.135742%, 40.736389%, 61.846924%)" offset="0.625"/><stop stop-opacity="1" stop-color="rgb(38.789368%, 40.388489%, 61.58905%)" offset="0.628906"/><stop stop-opacity="1" stop-color="rgb(38.441467%, 40.042114%, 61.329651%)" offset="0.632812"/><stop stop-opacity="1" stop-color="rgb(38.095093%, 39.694214%, 61.071777%)" offset="0.636719"/><stop stop-opacity="1" stop-color="rgb(37.747192%, 39.347839%, 60.812378%)" offset="0.640625"/><stop stop-opacity="1" stop-color="rgb(37.400818%, 38.999939%, 60.554504%)" offset="0.644531"/><stop stop-opacity="1" stop-color="rgb(37.052917%, 38.653564%, 60.295105%)" offset="0.648438"/><stop stop-opacity="1" stop-color="rgb(36.706543%, 38.305664%, 60.037231%)" offset="0.652344"/><stop stop-opacity="1" stop-color="rgb(36.358643%, 37.95929%, 59.777832%)" offset="0.65625"/><stop stop-opacity="1" stop-color="rgb(36.010742%, 37.611389%, 59.518433%)" offset="0.660156"/><stop stop-opacity="1" stop-color="rgb(35.664368%, 37.263489%, 59.260559%)" offset="0.664062"/><stop stop-opacity="1" stop-color="rgb(35.316467%, 36.917114%, 59.00116%)" offset="0.667969"/><stop stop-opacity="1" stop-color="rgb(34.970093%, 36.569214%, 58.743286%)" offset="0.671875"/><stop stop-opacity="1" stop-color="rgb(34.622192%, 36.222839%, 58.483887%)" offset="0.675781"/><stop stop-opacity="1" stop-color="rgb(34.275818%, 35.874939%, 58.226013%)" offset="0.679688"/><stop stop-opacity="1" stop-color="rgb(33.927917%, 35.528564%, 57.966614%)" offset="0.683594"/><stop stop-opacity="1" stop-color="rgb(33.581543%, 35.180664%, 57.70874%)" offset="0.6875"/><stop stop-opacity="1" stop-color="rgb(33.233643%, 34.83429%, 57.449341%)" offset="0.691406"/><stop stop-opacity="1" stop-color="rgb(32.885742%, 34.486389%, 57.191467%)" offset="0.695312"/><stop stop-opacity="1" stop-color="rgb(32.539368%, 34.138489%, 56.932068%)" offset="0.699219"/><stop stop-opacity="1" stop-color="rgb(32.191467%, 33.792114%, 56.674194%)" offset="0.703125"/><stop stop-opacity="1" stop-color="rgb(31.845093%, 33.444214%, 56.414795%)" offset="0.707031"/><stop stop-opacity="1" stop-color="rgb(31.497192%, 33.097839%, 56.156921%)" offset="0.710938"/><stop stop-opacity="1" stop-color="rgb(31.150818%, 32.749939%, 55.897522%)" offset="0.714844"/><stop stop-opacity="1" stop-color="rgb(30.802917%, 32.403564%, 55.639648%)" offset="0.71875"/><stop stop-opacity="1" stop-color="rgb(30.456543%, 32.055664%, 55.380249%)" offset="0.722656"/><stop stop-opacity="1" stop-color="rgb(30.108643%, 31.70929%, 55.122375%)" offset="0.726562"/><stop stop-opacity="1" stop-color="rgb(29.760742%, 31.361389%, 54.862976%)" offset="0.730469"/><stop stop-opacity="1" stop-color="rgb(29.414368%, 31.013489%, 54.603577%)" offset="0.734375"/><stop stop-opacity="1" stop-color="rgb(29.066467%, 30.667114%, 54.345703%)" offset="0.738281"/><stop stop-opacity="1" stop-color="rgb(28.720093%, 30.319214%, 54.086304%)" offset="0.742188"/><stop stop-opacity="1" stop-color="rgb(28.372192%, 29.972839%, 53.82843%)" offset="0.746094"/><stop stop-opacity="1" stop-color="rgb(28.199768%, 29.798889%, 53.69873%)" offset="1"/></radialGradient></defs><g clip-path="url(#cc2ad626ca)"><path fill="#ffffff" d="M 0.125 0 L 432.875 0 L 432.875 289 L 0.125 289 Z M 0.125 0 " fill-opacity="1" fill-rule="nonzero"/><path fill="#ffffff" d="M 0.125 0 L 432.875 0 L 432.875 289 L 0.125 289 Z M 0.125 0 " fill-opacity="1" fill-rule="nonzero"/></g><g clip-path="url(#7f274db078)"><g clip-path="url(#2b2208d271)"><g clip-path="url(#a7b24adb84)"><path fill="url(#d53c35986b)" d="M 11.238281 38.035156 L 11.238281 250.945312 L 421.519531 250.945312 L 421.519531 38.035156 Z M 11.238281 38.035156 " fill-rule="nonzero"/></g></g></g><path fill="#777bb3" d="M 216.378906 243.039062 C 325.25 243.039062 413.507812 198.917969 413.507812 144.488281 C 413.507812 90.058594 325.25 45.9375 216.378906 45.9375 C 107.511719 45.9375 19.253906 90.058594 19.253906 144.488281 C 19.253906 198.917969 107.511719 243.039062 216.378906 243.039062 " fill-opacity="1" fill-rule="nonzero"/><path fill="#000000" d="M 122.691406 156.703125 C 131.644531 156.703125 138.324219 155.074219 142.554688 151.867188 C 146.738281 148.691406 149.625 143.183594 151.140625 135.503906 C 152.550781 128.328125 152.015625 123.316406 149.542969 120.613281 C 147.015625 117.847656 141.546875 116.449219 133.296875 116.449219 L 118.992188 116.449219 L 111.0625 156.707031 L 122.691406 156.707031 Z M 75.902344 206.296875 C 75.238281 206.296875 74.605469 206.003906 74.183594 205.496094 C 73.738281 204.964844 73.585938 204.359375 73.71875 203.683594 L 94.734375 97 C 94.785156 96.75 94.875 96.515625 95.007812 96.296875 C 95.140625 96.078125 95.304688 95.886719 95.503906 95.726562 C 95.703125 95.5625 95.925781 95.4375 96.167969 95.351562 C 96.414062 95.265625 96.664062 95.222656 96.921875 95.222656 L 142.222656 95.222656 C 156.457031 95.222656 167.054688 99.03125 173.714844 106.558594 C 180.414062 114.121094 182.480469 124.691406 179.863281 137.976562 C 178.796875 143.386719 176.964844 148.414062 174.414062 152.914062 C 171.863281 157.417969 168.492188 161.585938 164.390625 165.304688 C 159.484375 169.839844 153.925781 173.125 147.894531 175.058594 C 141.957031 176.964844 134.328125 177.933594 125.226562 177.933594 L 106.882812 177.933594 L 101.644531 204.519531 C 101.597656 204.769531 101.507812 205.003906 101.375 205.226562 C 101.242188 205.445312 101.078125 205.632812 100.878906 205.796875 C 100.679688 205.957031 100.457031 206.082031 100.214844 206.167969 C 99.972656 206.253906 99.71875 206.296875 99.460938 206.296875 L 75.898438 206.296875 Z M 75.902344 206.296875 " fill-opacity="1" fill-rule="nonzero"/><path fill="#ffffff" d="M 120.828125 118.644531 L 133.300781 118.644531 C 143.257812 118.644531 146.714844 120.800781 147.890625 122.082031 C 149.839844 124.214844 150.210938 128.714844 148.957031 135.089844 C 147.546875 142.222656 144.9375 147.285156 141.195312 150.125 C 137.367188 153.035156 131.140625 154.507812 122.691406 154.507812 L 113.765625 154.507812 L 120.832031 118.644531 Z M 142.21875 93.023438 L 96.921875 93.023438 C 96.40625 93.023438 95.902344 93.109375 95.417969 93.285156 C 94.933594 93.457031 94.488281 93.703125 94.089844 94.027344 C 93.691406 94.351562 93.359375 94.734375 93.097656 95.171875 C 92.832031 95.609375 92.652344 96.078125 92.550781 96.578125 L 71.535156 203.269531 C 71.472656 203.585938 71.445312 203.90625 71.453125 204.230469 C 71.464844 204.554688 71.507812 204.871094 71.589844 205.1875 C 71.671875 205.5 71.785156 205.800781 71.933594 206.089844 C 72.082031 206.378906 72.261719 206.648438 72.46875 206.898438 C 72.679688 207.148438 72.914062 207.371094 73.171875 207.570312 C 73.429688 207.769531 73.707031 207.9375 74.003906 208.078125 C 74.300781 208.214844 74.609375 208.320312 74.929688 208.390625 C 75.25 208.460938 75.574219 208.496094 75.902344 208.496094 L 99.460938 208.496094 C 99.976562 208.496094 100.480469 208.410156 100.964844 208.238281 C 101.453125 208.066406 101.894531 207.816406 102.292969 207.492188 C 102.691406 207.171875 103.023438 206.789062 103.289062 206.351562 C 103.550781 205.914062 103.734375 205.445312 103.832031 204.941406 L 108.71875 180.132812 L 125.230469 180.132812 C 134.566406 180.132812 142.421875 179.128906 148.585938 177.148438 C 154.921875 175.117188 160.753906 171.675781 165.914062 166.914062 C 170.183594 163.039062 173.703125 158.691406 176.359375 153.988281 C 179.015625 149.289062 180.9375 144.039062 182.050781 138.398438 C 184.808594 124.414062 182.566406 113.21875 175.394531 105.117188 C 168.292969 97.097656 157.132812 93.03125 142.222656 93.03125 M 108.367188 158.90625 L 122.695312 158.90625 C 132.191406 158.90625 139.269531 157.144531 143.917969 153.613281 C 148.5625 150.082031 151.699219 144.1875 153.332031 135.929688 C 154.886719 128.003906 154.179688 122.40625 151.199219 119.148438 C 148.222656 115.886719 142.253906 114.257812 133.304688 114.257812 L 117.164062 114.257812 L 108.367188 158.90625 M 142.226562 97.421875 C 155.851562 97.421875 165.792969 100.949219 172.042969 108.007812 C 178.292969 115.0625 180.171875 124.914062 177.679688 137.558594 C 176.652344 142.769531 174.917969 147.53125 172.476562 151.847656 C 170.03125 156.164062 166.835938 160.113281 162.886719 163.691406 C 158.183594 168.035156 152.957031 171.128906 147.207031 172.972656 C 141.457031 174.820312 134.132812 175.742188 125.230469 175.742188 L 105.050781 175.742188 L 99.464844 204.105469 L 75.90625 204.105469 L 96.925781 97.429688 L 142.226562 97.429688 " fill-opacity="1" fill-rule="nonzero"/><path fill="#000000" d="M 233.875 177.929688 C 233.210938 177.929688 232.582031 177.636719 232.15625 177.132812 C 231.734375 176.625 231.5625 175.960938 231.691406 175.316406 L 240.988281 128.113281 C 241.871094 123.625 241.652344 120.402344 240.375 119.039062 C 239.589844 118.207031 237.238281 116.8125 230.277344 116.8125 L 213.433594 116.8125 L 201.742188 176.152344 C 201.695312 176.402344 201.605469 176.636719 201.472656 176.855469 C 201.339844 177.078125 201.175781 177.265625 200.976562 177.429688 C 200.777344 177.589844 200.554688 177.714844 200.3125 177.800781 C 200.066406 177.886719 199.816406 177.929688 199.558594 177.929688 L 176.1875 177.929688 C 175.855469 177.929688 175.539062 177.859375 175.238281 177.722656 C 174.9375 177.582031 174.679688 177.382812 174.46875 177.132812 C 174.257812 176.878906 174.109375 176.59375 174.03125 176.277344 C 173.949219 175.957031 173.9375 175.636719 174 175.316406 L 195.019531 68.632812 C 195.070312 68.382812 195.160156 68.148438 195.292969 67.929688 C 195.425781 67.710938 195.589844 67.519531 195.789062 67.359375 C 195.988281 67.195312 196.210938 67.074219 196.453125 66.988281 C 196.695312 66.902344 196.945312 66.859375 197.207031 66.859375 L 220.578125 66.859375 C 220.910156 66.859375 221.226562 66.925781 221.527344 67.066406 C 221.828125 67.207031 222.082031 67.402344 222.292969 67.65625 C 222.507812 67.910156 222.652344 68.195312 222.734375 68.511719 C 222.816406 68.832031 222.824219 69.148438 222.761719 69.472656 L 217.691406 95.222656 L 235.8125 95.222656 C 249.613281 95.222656 258.976562 97.621094 264.429688 102.5625 C 269.992188 107.597656 271.71875 115.65625 269.582031 126.511719 L 259.804688 176.15625 C 259.753906 176.40625 259.664062 176.640625 259.53125 176.859375 C 259.398438 177.078125 259.234375 177.269531 259.035156 177.429688 C 258.835938 177.59375 258.613281 177.714844 258.371094 177.804688 C 258.128906 177.890625 257.878906 177.933594 257.617188 177.933594 L 233.875 177.933594 Z M 233.875 177.929688 " fill-opacity="1" fill-rule="nonzero"/><path fill="#ffffff" d="M 220.578125 64.660156 L 197.207031 64.660156 C 196.691406 64.660156 196.1875 64.746094 195.703125 64.921875 C 195.214844 65.09375 194.773438 65.339844 194.375 65.664062 C 193.976562 65.988281 193.644531 66.371094 193.378906 66.808594 C 193.117188 67.246094 192.933594 67.714844 192.835938 68.214844 L 171.816406 174.898438 C 171.753906 175.214844 171.730469 175.535156 171.738281 175.859375 C 171.746094 176.183594 171.792969 176.503906 171.875 176.816406 C 171.953125 177.128906 172.070312 177.429688 172.21875 177.71875 C 172.367188 178.007812 172.542969 178.277344 172.753906 178.527344 C 172.960938 178.777344 173.195312 179.003906 173.457031 179.203125 C 173.714844 179.398438 173.992188 179.570312 174.289062 179.707031 C 174.585938 179.84375 174.894531 179.949219 175.214844 180.019531 C 175.535156 180.089844 175.859375 180.125 176.1875 180.125 L 199.558594 180.125 C 200.078125 180.125 200.578125 180.039062 201.066406 179.867188 C 201.550781 179.695312 201.992188 179.449219 202.390625 179.125 C 202.789062 178.800781 203.121094 178.417969 203.386719 177.980469 C 203.652344 177.542969 203.832031 177.074219 203.929688 176.574219 L 215.269531 119.007812 L 230.28125 119.007812 C 237.226562 119.007812 238.683594 120.472656 238.742188 120.535156 C 239.164062 120.980469 239.71875 123.054688 238.804688 127.695312 L 229.507812 174.898438 C 229.445312 175.214844 229.417969 175.535156 229.429688 175.859375 C 229.4375 176.183594 229.480469 176.503906 229.5625 176.816406 C 229.644531 177.128906 229.757812 177.429688 229.90625 177.71875 C 230.054688 178.007812 230.234375 178.277344 230.441406 178.527344 C 230.652344 178.777344 230.886719 179.003906 231.144531 179.203125 C 231.402344 179.398438 231.683594 179.570312 231.980469 179.707031 C 232.277344 179.84375 232.585938 179.949219 232.90625 180.019531 C 233.226562 180.089844 233.550781 180.125 233.878906 180.125 L 257.621094 180.125 C 258.136719 180.125 258.640625 180.039062 259.125 179.867188 C 259.613281 179.695312 260.054688 179.449219 260.453125 179.125 C 260.851562 178.800781 261.183594 178.417969 261.445312 177.980469 C 261.710938 177.542969 261.894531 177.074219 261.992188 176.574219 L 271.769531 126.929688 C 274.066406 115.277344 272.101562 106.53125 265.9375 100.945312 C 260.054688 95.617188 250.203125 93.023438 235.816406 93.023438 L 220.394531 93.023438 L 224.953125 69.890625 C 225.015625 69.574219 225.039062 69.253906 225.03125 68.929688 C 225.023438 68.605469 224.976562 68.285156 224.894531 67.972656 C 224.816406 67.65625 224.699219 67.355469 224.550781 67.066406 C 224.402344 66.777344 224.226562 66.507812 224.015625 66.257812 C 223.808594 66.007812 223.574219 65.785156 223.3125 65.585938 C 223.054688 65.386719 222.777344 65.21875 222.480469 65.082031 C 222.183594 64.941406 221.875 64.839844 221.554688 64.765625 C 221.234375 64.695312 220.910156 64.660156 220.582031 64.660156 M 220.582031 69.050781 L 214.992188 97.414062 L 235.816406 97.414062 C 248.917969 97.414062 257.953125 99.671875 262.925781 104.175781 C 267.902344 108.683594 269.390625 115.992188 267.402344 126.089844 L 257.625 175.734375 L 233.878906 175.734375 L 243.175781 128.53125 C 244.234375 123.164062 243.847656 119.5 242.007812 117.546875 C 240.171875 115.59375 236.261719 114.617188 230.28125 114.617188 L 211.601562 114.617188 L 199.558594 175.734375 L 176.1875 175.734375 L 197.207031 69.054688 L 220.578125 69.054688 " fill-opacity="1" fill-rule="nonzero"/><path fill="#000000" d="M 306.566406 156.703125 C 315.519531 156.703125 322.199219 155.074219 326.429688 151.867188 C 330.613281 148.691406 333.5 143.1875 335.015625 135.503906 C 336.429688 128.328125 335.890625 123.316406 333.417969 120.613281 C 330.890625 117.847656 325.425781 116.449219 317.171875 116.449219 L 302.867188 116.449219 L 294.9375 156.707031 L 306.566406 156.707031 Z M 259.777344 206.292969 C 259.113281 206.292969 258.480469 206 258.058594 205.496094 C 257.613281 204.960938 257.457031 204.359375 257.589844 203.679688 L 278.609375 96.996094 C 278.660156 96.746094 278.75 96.511719 278.882812 96.292969 C 279.011719 96.074219 279.179688 95.882812 279.378906 95.722656 C 279.578125 95.558594 279.800781 95.4375 280.042969 95.351562 C 280.285156 95.265625 280.535156 95.222656 280.796875 95.222656 L 326.09375 95.222656 C 340.332031 95.222656 350.929688 99.027344 357.589844 106.558594 C 364.285156 114.117188 366.351562 124.6875 363.734375 137.972656 C 362.667969 143.382812 360.835938 148.410156 358.289062 152.910156 C 355.734375 157.417969 352.363281 161.585938 348.265625 165.304688 C 343.355469 169.835938 337.800781 173.121094 331.765625 175.054688 C 325.828125 176.964844 318.203125 177.933594 309.101562 177.933594 L 290.742188 177.933594 L 285.507812 204.519531 C 285.457031 204.769531 285.367188 205.003906 285.234375 205.222656 C 285.101562 205.441406 284.9375 205.632812 284.738281 205.792969 C 284.539062 205.957031 284.316406 206.082031 284.074219 206.167969 C 283.832031 206.253906 283.578125 206.296875 283.320312 206.296875 L 259.765625 206.296875 Z M 259.777344 206.292969 " fill-opacity="1" fill-rule="nonzero"/><path fill="#ffffff" d="M 304.703125 118.644531 L 317.175781 118.644531 C 327.132812 118.644531 330.589844 120.800781 331.765625 122.082031 C 333.71875 124.214844 334.085938 128.714844 332.832031 135.085938 C 331.421875 142.222656 328.8125 147.285156 325.070312 150.125 C 321.242188 153.035156 315.015625 154.507812 306.566406 154.507812 L 297.640625 154.507812 Z M 326.09375 93.023438 L 280.792969 93.023438 C 280.277344 93.023438 279.777344 93.109375 279.289062 93.285156 C 278.804688 93.457031 278.363281 93.703125 277.964844 94.027344 C 277.5625 94.351562 277.234375 94.734375 276.96875 95.171875 C 276.703125 95.609375 276.523438 96.078125 276.425781 96.578125 L 255.40625 203.269531 C 255.34375 203.585938 255.316406 203.90625 255.324219 204.230469 C 255.335938 204.554688 255.378906 204.871094 255.460938 205.1875 C 255.542969 205.5 255.65625 205.800781 255.804688 206.089844 C 255.953125 206.378906 256.132812 206.648438 256.339844 206.898438 C 256.546875 207.148438 256.78125 207.371094 257.042969 207.570312 C 257.300781 207.769531 257.578125 207.9375 257.875 208.078125 C 258.171875 208.214844 258.480469 208.320312 258.800781 208.390625 C 259.121094 208.460938 259.445312 208.496094 259.773438 208.496094 L 283.332031 208.496094 C 283.847656 208.496094 284.351562 208.410156 284.835938 208.238281 C 285.324219 208.066406 285.765625 207.816406 286.164062 207.492188 C 286.5625 207.171875 286.894531 206.789062 287.15625 206.351562 C 287.421875 205.914062 287.601562 205.445312 287.703125 204.941406 L 292.589844 180.132812 L 309.097656 180.132812 C 318.433594 180.132812 326.292969 179.128906 332.457031 177.148438 C 338.792969 175.117188 344.625 171.675781 349.785156 166.914062 C 354.054688 163.039062 357.566406 158.691406 360.230469 153.988281 C 362.894531 149.289062 364.808594 144.039062 365.917969 138.398438 C 368.675781 124.414062 366.4375 113.214844 359.265625 105.117188 C 352.164062 97.097656 341.003906 93.03125 326.09375 93.03125 M 292.234375 158.90625 L 306.566406 158.90625 C 316.0625 158.90625 323.136719 157.144531 327.785156 153.613281 C 332.433594 150.082031 335.570312 144.1875 337.199219 135.929688 C 338.757812 128.003906 338.050781 122.40625 335.070312 119.148438 C 332.089844 115.886719 326.121094 114.257812 317.175781 114.257812 L 301.03125 114.257812 L 292.238281 158.90625 M 326.09375 97.421875 C 339.722656 97.421875 349.664062 100.949219 355.914062 108.007812 C 362.160156 115.0625 364.042969 124.914062 361.550781 137.558594 C 360.523438 142.769531 358.789062 147.53125 356.34375 151.847656 C 353.902344 156.164062 350.703125 160.113281 346.757812 163.691406 C 342.054688 168.035156 336.828125 171.128906 331.078125 172.972656 C 325.328125 174.820312 318.003906 175.742188 309.101562 175.742188 L 288.921875 175.742188 L 283.335938 204.105469 L 259.777344 204.105469 L 280.796875 97.421875 L 326.09375 97.421875 " fill-opacity="1" fill-rule="nonzero"/></svg>