<?xml version="1.0" encoding="UTF-8"?><svg id="Layer_1" xmlns="http://www.w3.org/2000/svg" viewBox="0 0 48 48"><defs><style>.cls-1{fill:#fff;}.cls-2{fill:#1976d2;}</style></defs><rect class="cls-2" width="48" height="48"/><polygon class="cls-1" points="28.65 21.33 10.97 21.33 10.97 25.69 17.31 25.69 17.31 45.33 22.34 45.33 22.34 25.69 28.65 25.69 28.65 21.33"/><path class="cls-1" d="M44.26,26.78s-2.38-1.59-5.08-1.59-3.66,1.28-3.66,2.65c0,3.53,9.84,3.18,9.84,10.28,0,10.95-15.01,6.09-15.01,6.09v-5.25s2.87,2.16,6.31,2.16,3.31-2.25,3.31-2.56c0-3.27-9.75-3.27-9.75-10.5,0-9.84,14.21-5.96,14.21-5.96l-.18,4.68Z"/></svg>